<svg xmlns="http://www.w3.org/2000/svg" fill="none" viewBox="0 0 48 48" id="People--Streamline-Ionic-Filled" height="48" width="48">
  <desc>
    People Streamline Icon: https://streamlinehq.com
  </desc>
  <path fill="#000000" d="M31.4996 23.9988c-1.9275 0 -3.7912 -0.8606 -5.2499 -2.4225 -1.4185 -1.5234 -2.2847 -3.5549 -2.4375 -5.7186 -0.1631 -2.3081 0.5409 -4.4306 1.9818 -5.97746 1.441 -1.54685 3.4556 -2.38122 5.7056 -2.38122 2.234 0 4.2543 0.84937 5.6905 2.39247 1.4503 1.55811 2.1563 3.67681 1.9931 5.96521 -0.1565 2.1666 -1.0218 4.1972 -2.4374 5.7187 -1.455 1.5628 -3.3178 2.4234 -5.2462 2.4234Z" stroke-width="1"></path>
  <path fill="#000000" d="M43.8571 40.4988H19.1403c-0.3974 0.0022 -0.7899 -0.0869 -1.1475 -0.2603 -0.3575 -0.1734 -0.6706 -0.4266 -0.915 -0.74 -0.2592 -0.3397 -0.4382 -0.7336 -0.5236 -1.1523 -0.0854 -0.4187 -0.075 -0.8513 0.0305 -1.2654 0.7894 -3.1697 2.745 -5.7984 5.6549 -7.6012 2.5828 -1.5993 5.8706 -2.4806 9.2587 -2.4806 3.4546 0 6.6561 0.8438 9.2539 2.4422 2.9165 1.7934 4.8749 4.4371 5.6605 7.6452 0.1043 0.4144 0.1135 0.847 0.0271 1.2655 -0.0863 0.4184 -0.266 0.8121 -0.5258 1.1513 -0.2441 0.3119 -0.5564 0.5638 -0.9129 0.7364 -0.3566 0.1726 -0.7479 0.2613 -1.144 0.2592Z" stroke-width="1"></path>
  <path fill="#000000" d="M13.7793 24.3739c-3.2988 0 -6.19912 -3.0672 -6.46816 -6.8366 -0.13311 -1.9311 0.46871 -3.7169 1.68737 -5.0265C10.204 11.2143 11.9045 10.5 13.7793 10.5c1.8749 0 3.5623 0.7181 4.7743 2.022 1.2281 1.3199 1.828 3.102 1.6874 5.0171 -0.269 3.7685 -3.1685 6.8348 -6.4617 6.8348Z" stroke-width="1"></path>
  <path fill="#000000" d="M19.9356 27.3231c-1.6491 -0.8062 -3.7894 -1.2093 -6.1546 -1.2093 -2.7619 0 -5.44405 0.72 -7.5534 2.0268 -2.39153 1.4841 -4.00026 3.645 -4.64993 6.254 -0.09508 0.3753 -0.10407 0.7671 -0.02631 1.1464 0.07776 0.3793 0.24027 0.736 0.47536 1.0436 0.22308 0.2863 0.50886 0.5177 0.83537 0.6764 0.32651 0.1586 0.68505 0.2402 1.04804 0.2386H14.3163c0.1756 0 0.3456 -0.0617 0.4804 -0.1743 0.1349 -0.1126 0.226 -0.2689 0.2574 -0.4417 0.0103 -0.059 0.0234 -0.1181 0.0384 -0.1762 0.795 -3.1931 2.6578 -5.8912 5.4102 -7.858 0.1013 -0.0731 0.1827 -0.1701 0.2369 -0.2825 0.0542 -0.1124 0.0796 -0.2365 0.0737 -0.3612 -0.0059 -0.1247 -0.0427 -0.2459 -0.1073 -0.3527 -0.0645 -0.1068 -0.1547 -0.1958 -0.2623 -0.2589 -0.1472 -0.0863 -0.316 -0.1772 -0.5081 -0.271Z" stroke-width="1"></path>
</svg>